<?xml version="1.0" encoding="UTF-8" standalone="no"?>
<!-- Generated by IcoMoon.io -->

<svg
   xmlns:dc="http://purl.org/dc/elements/1.1/"
   xmlns:cc="http://creativecommons.org/ns#"
   xmlns:rdf="http://www.w3.org/1999/02/22-rdf-syntax-ns#"
   xmlns:svg="http://www.w3.org/2000/svg"
   xmlns="http://www.w3.org/2000/svg"
   xmlns:sodipodi="http://sodipodi.sourceforge.net/DTD/sodipodi-0.dtd"
   xmlns:inkscape="http://www.inkscape.org/namespaces/inkscape"
   version="1.1"
   width="32"
   height="32"
   viewBox="0 0 32 32"
   id="svg8"
   sodipodi:docname="bin.svg"
   inkscape:version="0.92.3 (2405546, 2018-03-11)">
  <metadata
     id="metadata14">
    <rdf:RDF>
      <cc:Work
         rdf:about="">
        <dc:format>image/svg+xml</dc:format>
        <dc:type
           rdf:resource="http://purl.org/dc/dcmitype/StillImage" />
      </cc:Work>
    </rdf:RDF>
  </metadata>
  <defs
     id="defs12" />
  <sodipodi:namedview
     pagecolor="#ffffff"
     bordercolor="#666666"
     borderopacity="1"
     objecttolerance="10"
     gridtolerance="10"
     guidetolerance="10"
     inkscape:pageopacity="0"
     inkscape:pageshadow="2"
     inkscape:window-width="691"
     inkscape:window-height="480"
     id="namedview10"
     showgrid="false"
     inkscape:zoom="7.375"
     inkscape:cx="16"
     inkscape:cy="16"
     inkscape:window-x="0"
     inkscape:window-y="0"
     inkscape:window-maximized="0"
     inkscape:current-layer="svg8" />
  <title
     id="title2">bin</title>
  <path
     d="M4 10v20c0 1.1 0.9 2 2 2h18c1.1 0 2-0.9 2-2v-20h-22zM10 28h-2v-14h2v14zM14 28h-2v-14h2v14zM18 28h-2v-14h2v14zM22 28h-2v-14h2v14z"
     id="path4" />
  <path
     d="M26.5 4h-6.5v-2.5c0-0.825-0.675-1.5-1.5-1.5h-7c-0.825 0-1.5 0.675-1.5 1.5v2.5h-6.5c-0.825 0-1.5 0.675-1.5 1.5v2.5h26v-2.5c0-0.825-0.675-1.5-1.5-1.5zM18 4h-6v-1.975h6v1.975z"
     id="path6" />
  <path
     style="fill:#ffffff;fill-opacity:1;stroke-width:0.13559322"
     d="M 5.0440678,31.673474 C 4.8576271,31.555864 4.5830508,31.297492 4.4338983,31.099311 4.1690034,30.747342 4.1618679,30.49912 4.126335,20.4 L 4.0899581,10.061017 H 15.007691 25.925424 v 10.176225 c 0,11.028393 0.03354,10.521115 -0.743753,11.247504 l -0.362741,0.338983 -9.71794,0.03179 c -8.6511908,0.0283 -9.7551497,0.0083 -10.0569222,-0.182045 z M 10.061017,21.044068 V 13.99322 H 8.9762712 7.8915254 v 7.050848 7.050847 h 1.0847458 1.0847458 z m 4.035119,-0.0339 0.03512,-7.016949 H 13.04529 11.959324 v 7.056551 7.056552 l 1.050847,-0.0396 1.050848,-0.0396 z m 3.964881,0.0339 V 13.99322 h -1.084746 -1.084746 v 7.050848 7.050847 h 1.084746 1.084746 z m 4.035119,-0.0339 0.03512,-7.016949 H 21.04529 19.959324 v 7.056551 7.056552 l 1.050847,-0.0396 1.050848,-0.0396 z"
     id="path16"
     inkscape:connector-curvature="0" />
  <path
     style="fill:#ffffff;fill-opacity:1;stroke-width:0.13559322"
     d="M 2.0610169,6.4542373 V 5.0169492 L 2.5220339,4.5559322 2.9830508,4.0949153 H 6.5220339 10.061017 V 2.6644529 c 0,-1.6103557 0.161918,-2.09696763 0.809121,-2.43164925 0.565536,-0.29245016 7.508019,-0.30343272 8.203177,-0.0129769 0.7099,0.29661477 0.886007,0.78252215 0.886007,2.44462615 v 1.4304624 h 3.523284 3.523286 l 0.442816,0.3953708 0.442817,0.395371 0.0459,1.5029341 0.04589,1.5029342 H 15.022166 2.0610169 Z M 18.061017,3.0101695 V 1.9254237 h -3.050848 -3.050847 v 1.0847458 1.0847458 h 3.050847 3.050848 z"
     id="path18"
     inkscape:connector-curvature="0" />
</svg>
